<svg width="81" height="82" viewBox="0 0 81 82" fill="none" xmlns="http://www.w3.org/2000/svg">
<path fill-rule="evenodd" clip-rule="evenodd" d="M26.7375 19.5238L39.5358 49.1392V47.6631L27.6964 19.5238H26.7375ZM14.4644 45.9099L25.4181 20.5625L25.4408 20.6148L25.4623 20.5649L38.4433 50.603H35.6985L31.7183 41.7832C30.3629 41.7832 29.2979 41.7832 27.6519 41.7832C26.8035 41.7832 25.2941 43.7255 24.4892 43.8832L26.8842 38.8433C27.1826 38.8238 30.6497 38.9199 30.6497 38.9199L28.1588 32.892L25.4398 26.864L15.8368 49.0856L14.4644 45.9099ZM18.5308 53.9629L28.2923 33.2152H35.2016L35.6985 30.6444H25.4398L16.7235 51.023L18.2996 55.6429L18.5308 53.9629Z" fill="#8752F3"/>
<path d="M32.8074 41.3333L34.6185 30.4242H42.4807L42.0759 32.8106H37.1753L36.877 34.6856H41.3728L40.968 37.0719H36.4722L36.1739 38.9469H41.0532L40.6483 41.3333H32.8074ZM42.1342 41.3333L43.5831 32.606H47.3501C47.9979 32.606 48.5447 32.7239 48.9908 32.9597C49.4368 33.1955 49.7578 33.535 49.9538 33.9782C50.1499 34.4214 50.1967 34.9526 50.0945 35.5719C49.9922 36.1969 49.7663 36.7239 49.4169 37.1529C49.0703 37.5791 48.6286 37.9029 48.0916 38.1245C47.5575 38.3433 46.9581 38.4526 46.2933 38.4526H44.0433L44.3501 36.6117H46.1229C46.4013 36.6117 46.6456 36.5776 46.8558 36.5094C47.0661 36.4384 47.2365 36.3276 47.3672 36.1771C47.4979 36.0237 47.5831 35.8219 47.6229 35.5719C47.6626 35.3219 47.6428 35.1188 47.5632 34.9626C47.4837 34.8035 47.3516 34.687 47.1669 34.6131C46.9822 34.5364 46.7536 34.4981 46.4808 34.4981H45.6456L44.5036 41.3333H42.1342ZM47.9126 37.3276L49.4297 41.3333H46.8558L45.3899 37.3276H47.9126ZM50.267 41.3333L51.7159 32.606H54.0852L53.5057 36.1344H53.625L56.8295 32.606H59.5909L56.0114 36.4924L58.2102 41.3333H55.3807L53.983 38.0606L53.0114 39.1004L52.6364 41.3333H50.267Z" fill="#8752F3"/>
</svg>
