<svg width="86" height="84" viewBox="0 0 86 84" fill="none" xmlns="http://www.w3.org/2000/svg">
<circle cx="42" cy="42" r="42" fill="url(#paint0_linear_296_10)"/>
<path fill-rule="evenodd" clip-rule="evenodd" d="M32.6838 19.6358L49.0386 58.251V56.3263L33.9092 19.6358H32.6838ZM17 54.0404L30.9978 20.9902L31.0267 21.0583L31.0542 20.9932L47.6425 60.1596H44.135L39.0487 48.6596C37.3166 48.6596 35.9557 48.6596 33.8523 48.6596C32.7681 48.6596 30.8393 51.1921 29.8106 51.3977L32.8712 44.8263C33.2526 44.8009 37.6831 44.9262 37.6831 44.9262L34.5 37.0664L31.0254 29.2066L18.7538 58.1811L17 54.0404ZM22.1964 64.5406L34.6707 37.4879H43.5L44.135 34.1358H31.0254L19.8869 60.7072L21.901 66.731L22.1964 64.5406Z" fill="#8752F3"/>
<path d="M41.0213 45L42.8324 34.0909H50.6946L50.2898 36.4773H45.3892L45.0909 38.3523H49.5866L49.1818 40.7386H44.6861L44.3878 42.6136H49.267L48.8622 45H41.0213ZM50.3481 45L51.797 36.2727H55.564C56.2117 36.2727 56.7586 36.3906 57.2046 36.6264C57.6507 36.8622 57.9717 37.2017 58.1677 37.6449C58.3637 38.0881 58.4106 38.6193 58.3083 39.2386C58.2061 39.8636 57.9802 40.3906 57.6308 40.8196C57.2842 41.2457 56.8424 41.5696 56.3055 41.7912C55.7714 42.0099 55.172 42.1193 54.5072 42.1193H52.2572L52.564 40.2784H54.3367C54.6151 40.2784 54.8595 40.2443 55.0697 40.1761C55.2799 40.1051 55.4504 39.9943 55.5811 39.8438C55.7117 39.6903 55.797 39.4886 55.8367 39.2386C55.8765 38.9886 55.8566 38.7855 55.7771 38.6293C55.6975 38.4702 55.5654 38.3537 55.3808 38.2798C55.1961 38.2031 54.9674 38.1648 54.6947 38.1648H53.8595L52.7174 45H50.3481ZM56.1265 40.9943L57.6436 45H55.0697L53.6038 40.9943H56.1265ZM58.4809 45L59.9298 36.2727H62.2991L61.7195 39.8011H61.8389L65.0434 36.2727H67.8048L64.2252 40.1591L66.4241 45H63.5945L62.1968 41.7273L61.2252 42.767L60.8502 45H58.4809Z" fill="#8752F3"/>
<defs>
<linearGradient id="paint0_linear_296_10" x1="42" y1="0" x2="42" y2="84" gradientUnits="userSpaceOnUse">
<stop stop-color="#2C2D2F"/>
<stop offset="1"/>
</linearGradient>
</defs>
</svg>
