<svg width="1424" height="971" viewBox="0 0 1424 971" fill="none" xmlns="http://www.w3.org/2000/svg">
<g clip-path="url(#clip0_1_8)">
<rect width="1424" height="971" fill="url(#paint0_radial_1_8)"/>
<path d="M573.026 285.135C574.873 280.703 582.627 279.369 586.62 278.481C591.023 277.503 597.86 275.524 599.337 277.863C600.814 280.202 613.159 346.811 612.174 347.919C611.189 349.027 587.676 351.859 584.721 350.012C581.767 348.165 571.18 289.567 573.026 285.135Z" fill="#E1E1E1"/>
<path fill-rule="evenodd" clip-rule="evenodd" d="M781.641 542.936C779.814 539.952 779.583 536.801 782.573 533.611C790.68 524.961 814.933 530.406 843.772 536.882C854.053 539.19 864.917 541.629 875.84 543.607C1132.6 569.58 1333 786.387 1333 1050C1333 1331.11 1105.11 1559 824 1559C542.887 1559 315 1331.11 315 1050C315 950.349 315.092 893.356 364.585 814.863C409.202 734.384 476.027 667.489 553.749 619.962C563.888 611.344 583.176 594.63 592.013 585.793C602.175 575.631 612.474 577.996 617.907 586.239C670.281 562.935 725.816 548.011 781.641 542.936Z" fill="url(#paint1_linear_1_8)"/>
<path fill-rule="evenodd" clip-rule="evenodd" d="M593.115 263.753C589 263.174 585.064 261.483 582.411 258.031C574.766 248.085 589.627 238.588 596.353 241.066C603.079 243.544 613.406 255.8 610.878 259.55C609.87 261.045 606.354 262.688 602.006 263.493L614.94 274.498L604.439 283.809L593.115 263.753Z" fill="#FFB287"/>
<path fill-rule="evenodd" clip-rule="evenodd" d="M587.641 239.596C585.818 240.431 583.604 242.129 582.816 243.007C582.256 241.37 581.274 239.864 579.964 238.712C578.691 237.592 577.178 237.019 575.662 236.357C574.964 236.052 574.235 235.778 573.479 235.741C572.709 235.703 571.95 235.9 571.289 236.259C570.614 236.626 570.037 237.157 569.58 237.773C569.378 238.045 569.256 238.356 569.068 238.635C568.876 238.921 568.616 238.872 568.296 238.876C567.525 238.885 566.719 239.265 566.108 239.688C565.422 240.162 564.862 240.826 564.452 241.553C564.053 242.261 563.786 243.073 563.786 243.91C563.786 244.283 563.828 244.67 563.952 245.029C564.002 245.176 564.052 245.246 563.979 245.381C563.912 245.506 563.797 245.61 563.725 245.735C563.031 246.95 562.863 248.468 563.273 249.861C563.513 250.673 564.281 251.796 565.32 252.898C566.359 253.999 570.001 256.047 571.913 256.277C573.619 256.482 575.437 256.005 576.894 255.209C576.905 256.84 577.387 258.463 578.027 259.981C578.721 261.63 579.624 263.184 580.716 264.613C581.754 265.972 582.941 267.328 584.347 268.312C585.662 269.231 587.109 269.658 588.647 269.381C589.351 269.253 590.029 269.026 590.693 268.778C591.348 268.534 592 268.283 592.605 267.936C593.749 267.278 594.833 266.255 594.896 264.825C594.918 264.309 594.904 263.699 594.8 263.186C594.762 263.001 594.734 262.884 594.542 262.841C594.313 262.789 594.05 262.827 593.82 262.832C592.504 262.861 591.286 262.423 590.273 261.517C589.245 260.597 588.348 259.03 588.948 257.7C589.688 256.057 591.605 255.49 593.222 255.111C592.232 253.059 591.877 250.737 592.706 248.659C593.623 246.359 595.436 244.579 596.503 242.357C596.781 241.778 597.045 241.167 597.035 240.498C597.031 240.219 597.009 239.872 596.878 239.614C596.705 239.275 596.323 239.202 595.996 239.109C594.26 238.615 589.464 238.762 587.641 239.596Z" fill="#191847"/>
<path fill-rule="evenodd" clip-rule="evenodd" d="M624.878 330.329L698.831 371.515L757.75 408.413L763.827 404.905L649.527 316.098L624.878 330.329Z" fill="white"/>
<path fill-rule="evenodd" clip-rule="evenodd" d="M752.617 408.103C752.924 409.942 753.294 411.238 753.727 411.989C754.254 412.902 755.176 414.147 756.492 415.723C757.551 415.111 767.072 409.614 785.055 399.232C784.381 396.349 783.187 395.272 781.475 396C779.763 396.727 778.332 397.318 777.184 397.771L760.491 399.517C760.169 399.551 759.936 399.838 759.97 400.16C759.97 400.165 759.971 400.171 759.972 400.176L760.314 402.739C759.232 404.284 758.228 405.324 757.303 405.859C756.551 406.293 755.337 406.589 753.661 406.746L753.661 406.746C753.018 406.807 752.546 407.377 752.606 408.02C752.609 408.048 752.612 408.075 752.617 408.103Z" fill="#FFCA00"/>
<path d="M784.94 398.634C784.564 398.404 765.453 409.337 755.944 414.832C755.841 415.339 756.32 415.819 756.725 416.189C757.129 416.559 785.231 400.516 785.5 399.899C785.769 399.281 785.41 398.921 784.94 398.634Z" fill="#CBA71E"/>
<path fill-rule="evenodd" clip-rule="evenodd" d="M744.997 404.42L754.669 394.109C740.673 381.725 724.629 368.467 706.535 354.336C688.442 340.206 670.169 327.038 651.718 314.833L618.62 333.942C640.65 350.137 662.108 364.021 682.994 375.593C703.879 387.165 724.547 396.774 744.997 404.42Z" fill="url(#paint2_radial_1_8)"/>
<path fill-rule="evenodd" clip-rule="evenodd" d="M622.405 331.757C631.617 355.915 641.074 388.115 640.931 389.36C640.835 390.19 628.322 404.347 603.39 431.83L607.796 436.431C641.247 410.098 658.115 394.913 658.403 390.874C658.834 384.816 653.673 341.904 647.161 317.464L622.405 331.757Z" fill="url(#paint3_linear_1_8)"/>
<path fill-rule="evenodd" clip-rule="evenodd" d="M611.472 420.988L618.767 428.283C647.441 414.92 663.165 403.535 665.939 394.13C668.712 384.725 663.094 358.799 649.084 316.353L617.524 334.575C630.454 368.49 637.001 386.27 637.164 387.913C637.327 389.556 628.763 400.581 611.472 420.988Z" fill="url(#paint4_radial_1_8)"/>
<path fill-rule="evenodd" clip-rule="evenodd" d="M603.599 428.733C601.841 429.354 600.63 429.943 599.966 430.501C599.158 431.179 598.092 432.302 596.768 433.872C597.554 434.809 604.621 443.231 617.969 459.138C620.69 457.973 621.544 456.611 620.53 455.051C619.516 453.491 618.686 452.185 618.041 451.132L613.422 434.996C613.333 434.685 613.009 434.506 612.699 434.595C612.694 434.596 612.688 434.598 612.683 434.599L610.219 435.381C608.509 434.584 607.31 433.776 606.623 432.958C606.065 432.292 605.563 431.148 605.117 429.525L605.117 429.525C604.946 428.903 604.302 428.536 603.679 428.708C603.652 428.715 603.626 428.723 603.599 428.733Z" fill="#FFCA00"/>
<path fill-rule="evenodd" clip-rule="evenodd" d="M663.671 279.493L673.377 266.82C672.162 259.193 672.795 254.807 675.274 253.664C676.8 251.925 677.263 262.036 680.571 259.684C683.88 257.332 689.851 246.816 691.972 247.483C695.11 248.47 695.775 255.451 694.731 259.529C692.781 267.15 689.953 270.708 681.974 277.252C677.802 280.673 673.831 285.596 670.06 292.021L663.671 279.493Z" fill="url(#paint5_linear_1_8)"/>
<mask id="mask0_1_8" style="mask-type:alpha" maskUnits="userSpaceOnUse" x="663" y="247" width="33" height="46">
<path fill-rule="evenodd" clip-rule="evenodd" d="M663.671 279.493L673.377 266.82C672.162 259.193 672.795 254.807 675.274 253.664C676.8 251.925 677.263 262.036 680.571 259.684C683.88 257.332 689.851 246.816 691.972 247.483C695.11 248.47 695.775 255.451 694.731 259.529C692.781 267.15 689.953 270.708 681.974 277.252C677.802 280.673 673.831 285.596 670.06 292.021L663.671 279.493Z" fill="url(#paint6_linear_1_8)"/>
</mask>
<g mask="url(#mask0_1_8)">
<path d="M672.696 264.619C672.29 264.88 672.647 267.409 672.877 268.641C673.276 268.894 677.913 277.373 681.5 278.315C685.088 279.257 687.588 275.452 687.914 274.691C688.24 273.931 678.348 265.38 676.392 264.292C674.435 263.205 673.203 264.292 672.696 264.619Z" fill="#E1E1E1"/>
</g>
<path d="M642.783 267.634L623.31 294.73L632.755 297.139L647.91 272.093C654.335 265.576 656.94 262.018 655.724 261.42C653.901 260.522 652.566 262.933 651.237 262.526C649.909 262.119 649.697 258.138 649.657 254.35C649.617 250.563 648.039 251.806 647.292 252.785C645.329 256.826 643.826 261.776 642.783 267.634Z" fill="#E1E1E1"/>
<mask id="mask1_1_8" style="mask-type:alpha" maskUnits="userSpaceOnUse" x="623" y="251" width="34" height="47">
<path d="M642.783 267.634L623.31 294.73L632.755 297.139L647.91 272.093C654.335 265.576 656.94 262.018 655.724 261.42C653.901 260.522 652.566 262.933 651.237 262.526C649.909 262.119 649.697 258.137 649.657 254.35C649.617 250.563 648.039 251.806 647.292 252.785C645.329 256.826 643.826 261.776 642.783 267.634Z" fill="#E1E1E1"/>
</mask>
<g mask="url(#mask1_1_8)">
<path d="M651.401 269.653C651.453 269.263 645.638 266.804 642.725 265.623C642.384 265.266 641.116 268.369 641.002 269.214C640.889 270.059 647.81 272.269 649.289 272.561C650.768 272.854 651.336 270.14 651.401 269.653Z" fill="#B9B9B9"/>
</g>
<path fill-rule="evenodd" clip-rule="evenodd" d="M622.508 286.771C628.627 283.152 636.087 277.111 641.637 266.492L649.507 272.178C646.926 281.664 641.274 291.497 633.724 295.577C627.775 298.793 620.694 293.439 622.508 286.771Z" fill="#E1E1E1"/>
<path fill-rule="evenodd" clip-rule="evenodd" d="M637.902 294.289C645.379 292.145 655.231 283.894 667.455 269.537C675.83 275.229 680.844 279.839 682.497 283.367C673.279 297.882 663.741 307.487 654.539 313.071C658.028 318.43 660.392 324.08 660.907 330.194C661.965 342.762 629.46 349.324 621.348 356.41C604.87 341.105 611.585 327.143 604.717 315.227C597.197 302.179 596.079 276.057 597.62 275.167L611.671 267.055C618.198 276.568 628.438 285.293 637.902 294.289Z" fill="url(#paint7_linear_1_8)"/>
<path fill-rule="evenodd" clip-rule="evenodd" d="M1182.06 156.37C1165.46 148.849 1153.29 139.898 1154.89 136.376C1155.94 134.054 1162.72 134.673 1171.97 137.521C1170.37 139.18 1169.09 141.145 1168.23 143.318C1172.95 145.544 1175 146.421 1184 150.46C1193 154.5 1195.69 155.537 1201.15 157.842C1202.09 155.905 1202.69 153.774 1202.88 151.526C1211.13 156.604 1216.06 161.288 1215.01 163.61C1213.41 167.132 1198.66 163.89 1182.06 156.37Z" fill="#FF8A01"/>
<path d="M1166.95 149.993C1166.95 159.934 1175.01 167.993 1184.95 167.993C1194.89 167.993 1202.95 159.934 1202.95 149.993C1202.95 140.052 1194.89 131.993 1184.95 131.993C1175.01 131.993 1166.95 140.052 1166.95 149.993Z" fill="#474A5B"/>
<path fill-rule="evenodd" clip-rule="evenodd" d="M1182.06 156.37C1165.46 148.849 1153.29 139.898 1154.89 136.376C1155.94 134.054 1162.72 134.673 1171.97 137.521C1170.37 139.18 1169.09 141.145 1168.23 143.318C1172.95 145.544 1175 146.421 1184 150.46C1193 154.5 1195.69 155.537 1201.15 157.842C1202.09 155.905 1202.69 153.774 1202.88 151.526C1211.13 156.604 1216.06 161.288 1215.01 163.61C1213.41 167.132 1198.66 163.89 1182.06 156.37Z" fill="#474A5B"/>
<path d="M607.669 346.175C614.984 440.382 224.5 468.824 224.5 207.686C224.5 -100.814 129 -29.8139 4 -20.3139" stroke="url(#paint8_linear_1_8)" stroke-width="5"/>
<path d="M466.5 546.5C462.5 548.9 462.5 551 462 552.5C461.5 551.5 461 549.4 457 547C460 544 460.5 543 461.5 541C462 542 462.5 544.1 466.5 546.5Z" fill="#383B51" stroke="#383B51"/>
<path d="M451.5 195.5C447.5 197.9 447.5 200 447 201.5C446.5 200.5 446 198.4 442 196C445 193 445.5 192 446.5 190C447 191 447.5 193.1 451.5 195.5Z" fill="#383B51" stroke="#383B51"/>
<path d="M983.5 299.5C979.5 301.9 979.5 304 979 305.5C978.5 304.5 978 302.4 974 300C977 297 977.5 296 978.5 294C979 295 979.5 297.1 983.5 299.5Z" fill="#383B51" stroke="#383B51"/>
<path d="M143.5 331.5C139.5 333.9 139.5 336 139 337.5C138.5 336.5 138 334.4 134 332C137 329 137.5 328 138.5 326C139 327 139.5 329.1 143.5 331.5Z" fill="#383B51" stroke="#383B51"/>
<path d="M890.748 110.5C886.748 112.9 886.748 115 886.248 116.5C885.748 115.5 885.248 113.4 881.248 111C884.248 108 884.748 107 885.748 105C886.248 106 886.748 108.1 890.748 110.5Z" fill="#383B51" stroke="#383B51"/>
<path d="M533.748 299.5C529.748 301.9 529.748 304 529.248 305.5C528.748 304.5 528.248 302.4 524.248 300C527.248 297 527.748 296 528.748 294C529.248 295 529.748 297.1 533.748 299.5Z" fill="#383B51" stroke="#383B51"/>
<path d="M527.748 590.5C523.748 592.9 523.748 595 523.248 596.5C522.748 595.5 522.248 593.4 518.248 591C521.248 588 521.748 587 522.748 585C523.248 586 523.748 588.1 527.748 590.5Z" fill="#383B51" stroke="#383B51"/>
<path d="M40.5 813.5C36.5 815.9 36.5 818 36 819.5C35.5 818.5 35 816.4 31 814C34 811 34.5 810 35.5 808C36 809 36.5 811.1 40.5 813.5Z" fill="#383B51" stroke="#383B51"/>
<path d="M1029.5 528.5C1025.5 530.9 1025.5 533 1025 534.5C1024.5 533.5 1024 531.4 1020 529C1023 526 1023.5 525 1024.5 523C1025 524 1025.5 526.1 1029.5 528.5Z" fill="#383B51" stroke="#383B51"/>
<path d="M1082.5 218.5C1078.5 220.9 1078.5 223 1078 224.5C1077.5 223.5 1077 221.4 1073 219C1076 216 1076.5 215 1077.5 213C1078 214 1078.5 216.1 1082.5 218.5Z" fill="#383B51" stroke="#383B51"/>
<path d="M777.5 283.5C773.5 285.9 773.5 288 773 289.5C772.5 288.5 772 286.4 768 284C771 281 771.5 280 772.5 278C773 279 773.5 281.1 777.5 283.5Z" fill="#383B51" stroke="#383B51"/>
<path d="M683 286C683 284.8 670.667 274.5 664.5 269.5C664.5 268 666 262.5 668 262.5C670 262.5 688.5 279.5 689 280C689.5 280.5 683 287.5 683 286Z" fill="url(#paint9_linear_1_8)"/>
<path d="M649.829 276.278C649.717 275.682 642.332 271.762 638.653 269.878C638.513 269.131 638.781 266.249 639.823 266.054C640.865 265.858 652.088 272.508 652.395 272.708C652.702 272.908 649.969 277.025 649.829 276.278Z" fill="#E1E1E1"/>
<rect x="591.706" y="348.616" width="10.2806" height="4.27451" rx="2" transform="rotate(-5.51925 591.706 348.616)" fill="#E1E1E1"/>
<path d="M578.224 278.752C580.03 278.081 581.647 280.101 580.598 281.716L574.322 291.381C573.974 291.917 573.39 292.255 572.751 292.289L571.496 292.356C570.393 292.415 569.451 291.569 569.392 290.466L569.028 283.667C568.981 282.793 569.508 281.99 570.329 281.685L578.224 278.752Z" fill="#E1E1E1"/>
<path d="M616.829 323.394C622.312 328.877 641.473 319.012 645.802 316.686C640.957 321.607 618.191 332.884 614.987 329.502C611.503 325.825 605.989 300.167 606.57 302.683C607.151 305.199 610.78 317.345 616.829 323.394Z" fill="#E1E1E1"/>
<path d="M644.203 343.017C644.637 342.664 645.034 342.356 645.372 342.105C645.227 342.303 644.815 342.617 644.203 343.017C641.853 344.928 638.428 348.155 637.507 350.704C636.144 354.479 627.44 360.142 627.021 359.722C626.601 359.303 623.56 353.745 624.819 353.221C625.919 352.762 639.933 345.807 644.203 343.017Z" fill="#E1E1E1"/>
<path d="M656.085 338.208C655.871 339.423 660.541 354.877 662.922 363.72C663.321 365.204 670.604 368.097 669.532 367.65C668.46 367.204 656.353 336.69 656.085 338.208Z" fill="#E1E1E1"/>
<path d="M566.231 298.524C567.598 295.243 573.339 294.255 576.294 293.598C579.554 292.874 584.731 292.782 585.825 294.514C586.919 296.245 595.941 344.182 595.212 345.003C594.483 345.823 577.076 347.919 574.889 346.552C572.702 345.185 564.864 301.805 566.231 298.524Z" fill="#E1E1E1"/>
<path d="M572.575 283.129C574.421 278.697 582.176 277.363 586.168 276.475C590.572 275.497 597.408 273.518 598.885 275.857C600.363 278.196 612.707 344.805 611.723 345.913C610.738 347.021 587.224 349.853 584.27 348.006C581.315 346.159 570.728 287.561 572.575 283.129Z" fill="#F5F5F5"/>
<mask id="mask2_1_8" style="mask-type:alpha" maskUnits="userSpaceOnUse" x="566" y="293" width="30" height="55">
<path d="M566.231 298.524C567.598 295.243 573.339 294.255 576.294 293.598C579.554 292.874 584.731 292.782 585.825 294.514C586.919 296.245 595.941 344.182 595.212 345.003C594.483 345.823 577.076 347.919 574.889 346.552C572.702 345.185 564.864 301.805 566.231 298.524Z" fill="white"/>
</mask>
<g mask="url(#mask2_1_8)">
<path d="M572.152 313.17C572.105 312.94 569.017 295.426 568.326 294.919" stroke="#FFCA00" stroke-width="3"/>
</g>
<path d="M588.554 341.233C587.478 340.824 583.112 316.992 581.064 305.128C580.68 293.541 595.532 293.285 597.516 301.735C597.794 302.918 605.71 338.801 605.518 339.697C605.326 340.593 589.898 341.746 588.554 341.233Z" fill="white"/>
<path d="M586.538 338.403C585.271 337.92 580.128 309.845 577.714 295.868C577.262 282.218 594.759 281.916 597.096 291.871C597.424 293.264 606.75 335.537 606.524 336.593C606.297 337.649 588.122 339.007 586.538 338.403Z" fill="url(#paint10_linear_1_8)"/>
<path d="M586.881 340.069C586.02 339.274 586.081 338.358 586.219 338C587.709 335.93 605.84 334.605 606.585 335.268C607.33 335.93 606.75 337.089 606.585 338C606.419 338.91 587.957 341.063 586.881 340.069Z" fill="#E1E1E1"/>
<path d="M639.099 307.56C643.923 313.279 647.081 314.707 648.54 314.649C644.596 318.819 625.453 326.842 622.492 323.132C619.825 319.791 612.707 302.121 610.769 298.22C610.482 298.038 610.314 297.848 610.286 297.648C610.229 297.248 610.41 297.499 610.769 298.22C614.14 300.367 634.016 301.533 639.099 307.56Z" fill="white"/>
<circle cx="592.117" cy="241.813" r="34" fill="url(#paint11_linear_1_8)"/>
<mask id="mask3_1_8" style="mask-type:alpha" maskUnits="userSpaceOnUse" x="558" y="207" width="69" height="69">
<circle cx="592.117" cy="241.813" r="34" fill="white"/>
</mask>
<g mask="url(#mask3_1_8)">
<path d="M620.343 259.976C622.562 258.315 613.095 271.339 608.76 274.713C608.76 275.411 590.346 282.481 587.553 281.608C584.76 280.735 586.855 280.822 586.506 278.291C586.157 275.76 602.564 268.779 604.397 267.819C606.229 266.859 614.192 264.579 620.343 259.976Z" fill="#FEFFFF"/>
</g>
<path d="M568.774 227.541C592.144 206.995 612.714 224.154 611.578 222.301C606.469 213.959 596.837 210.647 590.11 211.406C580.504 212.489 572.009 216.88 568.774 227.541Z" fill="#242635"/>
<path d="M620.833 237.769C620.416 235.927 618.63 232.282 617.78 230.973C620.521 231.11 621.07 232.911 621.457 233.446C621.844 233.981 621.25 239.612 620.833 237.769Z" fill="#242635"/>
<circle cx="615.478" cy="288.517" r="7.33816" fill="#FFCA00"/>
<path d="M619.983 349.53C618.753 347.517 610.141 334.768 609.359 333.649C609.944 342.133 615.697 353.129 619.228 354.088C620.307 354.381 621.213 351.543 619.983 349.53Z" fill="#E1E1E1"/>
<mask id="mask4_1_8" style="mask-type:alpha" maskUnits="userSpaceOnUse" x="611" y="507" width="1018" height="1030">
<path fill-rule="evenodd" clip-rule="evenodd" d="M1077.64 520.937C1075.81 517.952 1075.58 514.801 1078.57 511.611C1086.68 502.961 1110.93 508.407 1139.77 514.882C1150.05 517.19 1160.92 519.629 1171.84 521.607C1428.6 547.58 1629 764.387 1629 1028C1629 1309.11 1401.11 1537 1120 1537C838.887 1537 611 1309.11 611 1028C611 928.349 611.092 871.357 660.585 792.863C705.202 712.384 772.027 645.489 849.749 597.962C859.888 589.344 879.176 572.63 888.013 563.793C898.175 553.631 908.474 555.996 913.907 564.24C966.281 540.935 1021.82 526.011 1077.64 520.937Z" fill="url(#paint12_linear_1_8)"/>
</mask>
<g mask="url(#mask4_1_8)">
<g filter="url(#filter0_f_1_8)">
<path d="M645.559 988.913C498.347 1177.65 318.156 1175.29 285.654 1043.51C165.775 557.452 649.455 588.164 686.54 694.329C698.594 728.837 829.573 752.993 645.559 988.913Z" fill="url(#paint13_radial_1_8)"/>
</g>
</g>
<mask id="mask5_1_8" style="mask-type:alpha" maskUnits="userSpaceOnUse" x="-233" y="596" width="1018" height="1018">
<path d="M785 1105C785 1386.11 557.113 1614 276 1614C-5.11295 1614 -233 1386.11 -233 1105C-233 1015.79 -221.124 937.765 -180.803 864.857C-94.0725 708.026 84.0997 596 276 596C557.113 596 785 823.887 785 1105Z" fill="url(#paint14_linear_1_8)"/>
</mask>
<g mask="url(#mask5_1_8)">
<ellipse cx="32.5881" cy="885.083" rx="298.437" ry="288.041" transform="rotate(56.6945 32.5881 885.083)" fill="url(#paint15_radial_1_8)"/>
</g>
<path d="M720.57 535.139C790.149 525.341 851.504 524.627 843.779 555.165C836.055 585.703 790.149 626.149 720.57 635.947C650.991 645.744 572.326 635.937 580.05 605.399C587.775 574.861 650.991 544.937 720.57 535.139Z" fill="url(#paint16_radial_1_8)"/>
<mask id="mask6_1_8" style="mask-type:alpha" maskUnits="userSpaceOnUse" x="579" y="529" width="266" height="111">
<path d="M720.57 535.139C790.149 525.341 851.504 524.627 843.779 555.165C836.055 585.703 790.149 626.149 720.57 635.947C650.991 645.744 572.326 635.937 580.05 605.399C587.775 574.861 650.991 544.937 720.57 535.139Z" fill="url(#paint17_radial_1_8)"/>
</mask>
<g mask="url(#mask6_1_8)">
<g filter="url(#filter1_f_1_8)">
<path d="M827.013 582.406C850.996 509.946 517.208 585.282 652.896 632.399C639.749 645.547 551.395 613.584 540.196 574.142C528.996 534.7 559.186 551.256 606.419 518.144C653.652 485.032 790.969 489.902 840.15 490.875C889.331 491.849 881.54 527.883 885.922 544.926C889.428 558.56 835.291 568.285 827.013 582.406Z" fill="url(#paint18_radial_1_8)"/>
</g>
</g>
<ellipse cx="131.174" cy="161.838" rx="131.174" ry="161.838" transform="matrix(0.960901 0.276894 -0.234256 0.972175 -139.137 722.211)" fill="#2C2F41"/>
<ellipse cx="181.362" cy="198.028" rx="181.362" ry="198.028" transform="matrix(0.863252 0.504773 0.483855 -0.875148 297.156 981.478)" fill="#2C2F42"/>
<ellipse cx="121.363" cy="149.733" rx="121.363" ry="149.733" transform="matrix(0.960901 0.276894 -0.234256 0.972175 -132.545 736.696)" fill="url(#paint19_radial_1_8)"/>
<ellipse cx="170.29" cy="185.939" rx="170.29" ry="185.939" transform="matrix(0.862992 0.505218 0.483363 -0.87542 311.65 972.554)" fill="url(#paint20_radial_1_8)"/>
<path d="M719.957 537.563C754.699 532.671 787.19 530.079 809.981 532.463C821.389 533.657 830.169 536.08 835.611 539.934C840.996 543.748 842.989 548.85 841.304 555.514C837.688 569.807 825.013 586.809 804.423 601.569C783.869 616.303 755.556 628.683 721.183 633.523C686.614 638.391 649.802 638.381 622.654 633.383C609.068 630.882 598.037 627.155 590.907 622.262C583.723 617.333 580.891 611.514 582.526 605.05C584.252 598.229 589.103 591.273 596.794 584.386C604.509 577.478 614.953 570.765 627.485 564.602C652.54 552.282 685.394 542.43 719.957 537.563Z" stroke="#2C2F41" stroke-width="5"/>
<path d="M122.505 741.528C124.893 743.68 126.731 746.278 125.65 748.545C123.565 752.915 113.311 749.363 114.213 745.244C115.116 741.124 121.263 740.409 122.505 741.528Z" fill="#0C0D1C"/>
<path d="M21.5215 680.539C17.4708 679.244 19.2552 675.171 21.5215 670.976C25.8922 662.885 41.4324 661.832 36.3727 668.943C31.0986 676.356 25.3559 681.765 21.5215 680.539Z" fill="#0C0D1C"/>
<path d="M365.567 524.922C365.254 527.615 364.429 530.215 362.563 530.816C358.964 531.974 356.784 523.606 359.722 521.855C362.66 520.103 365.73 523.522 365.567 524.922Z" fill="#474A5B"/>
<path d="M80.803 593.47C82.8562 595.24 84.5465 597.382 83.9966 599.263C82.936 602.892 74.7864 600.003 74.9847 596.588C75.183 593.173 79.7357 592.55 80.803 593.47Z" fill="#474A5B"/>
<path fill-rule="evenodd" clip-rule="evenodd" d="M1113.98 528.859C1105.39 518.789 1102.82 507.783 1102.61 503.539C1106.84 503.129 1118.11 504.067 1129.32 511.091C1143.34 519.872 1168.81 542.97 1168.89 544.152C1168.9 544.218 1168.98 544.295 1169.12 544.381L1201.45 549.659L1188.6 565.373C1198.66 574.686 1213.4 591.818 1204.87 591.648C1199.1 591.532 1187.52 585.394 1177.34 579.146L1165.56 593.554L1159.9 578.591C1158.55 575.868 1157.21 572.851 1156.04 570.215C1154.28 566.258 1152.9 563.157 1152.46 563.189C1151.27 563.276 1124.71 541.447 1113.98 528.859Z" fill="url(#paint21_linear_1_8)"/>
<path d="M219.2 44C219.2 53.9411 227.259 62 237.2 62C247.141 62 255.2 53.9411 255.2 44C255.2 34.0589 247.141 26 237.2 26C227.259 26 219.2 34.0589 219.2 44Z" fill="#474A5B"/>
<path fill-rule="evenodd" clip-rule="evenodd" d="M234.312 50.3762C217.71 42.8558 205.545 33.9046 207.141 30.383C208.193 28.0605 214.967 28.6798 224.221 31.5281C222.626 33.1872 221.347 35.1513 220.478 37.3243C225.202 39.5506 227.252 40.4272 236.252 44.467C245.252 48.5067 247.946 49.5433 253.403 51.8485C254.343 49.9116 254.946 47.7809 255.136 45.5325C263.379 50.6103 268.312 55.2944 267.26 57.6169C265.665 61.1384 250.913 57.8967 234.312 50.3762Z" fill="#474A5B"/>
<ellipse cx="38.5" cy="61.5" rx="38.5" ry="61.5" transform="matrix(-1 0 0 1 1449 447)" fill="#474A5B"/>
<ellipse cx="77.5" cy="61.5" rx="77.5" ry="61.5" transform="matrix(-1 0 0 1 1471 857)" fill="#474A5B"/>
<path d="M1050 862.565C1039.47 866.739 1039.47 870.391 1038.16 873C1036.84 871.261 1035.53 867.609 1025 863.435C1032.89 858.217 1034.21 856.478 1036.84 853C1038.16 854.739 1039.47 858.391 1050 862.565Z" fill="#383B51" stroke="#383B51"/>
<path d="M964.5 263.5C960.5 265.9 960.5 268 960 269.5C959.5 268.5 959 266.4 955 264C958 261 958.5 260 959.5 258C960 259 960.5 261.1 964.5 263.5Z" fill="#383B51" stroke="#383B51"/>
<path d="M1130.5 343.5C1126.5 345.9 1126.5 348 1126 349.5C1125.5 348.5 1125 346.4 1121 344C1124 341 1124.5 340 1125.5 338C1126 339 1126.5 341.1 1130.5 343.5Z" fill="#383B51" stroke="#383B51"/>
<path d="M1319 205.87C1315.21 211.922 1315.21 217.217 1314.74 221C1314.26 218.478 1313.79 213.183 1310 207.13C1312.84 199.565 1313.32 197.043 1314.26 192C1314.74 194.522 1315.21 199.817 1319 205.87Z" fill="#383B51" stroke="#383B51"/>
<path d="M1008.5 519.5C1004.5 521.9 1004.5 524 1004 525.5C1003.5 524.5 1003 522.4 999 520C1002 517 1002.5 516 1003.5 514C1004 515 1004.5 517.1 1008.5 519.5Z" fill="#383B51" stroke="#383B51"/>
<path d="M1008.5 519.5C1004.5 521.9 1004.5 524 1004 525.5C1003.5 524.5 1003 522.4 999 520C1002 517 1002.5 516 1003.5 514C1004 515 1004.5 517.1 1008.5 519.5Z" fill="#383B51" stroke="#383B51"/>
<path d="M1143.5 828.5C1139.5 830.9 1139.5 833 1139 834.5C1138.5 833.5 1138 831.4 1134 829C1137 826 1137.5 825 1138.5 823C1139 824 1139.5 826.1 1143.5 828.5Z" fill="#383B51" stroke="#383B51"/>
</g>
<defs>
<filter id="filter0_f_1_8" x="246.605" y="609.505" width="516.356" height="547.703" filterUnits="userSpaceOnUse" color-interpolation-filters="sRGB">
<feFlood flood-opacity="0" result="BackgroundImageFix"/>
<feBlend mode="normal" in="SourceGraphic" in2="BackgroundImageFix" result="shape"/>
<feGaussianBlur stdDeviation="10" result="effect1_foregroundBlur_1_8"/>
</filter>
<filter id="filter1_f_1_8" x="527.859" y="480.059" width="368.227" height="165.343" filterUnits="userSpaceOnUse" color-interpolation-filters="sRGB">
<feFlood flood-opacity="0" result="BackgroundImageFix"/>
<feBlend mode="normal" in="SourceGraphic" in2="BackgroundImageFix" result="shape"/>
<feGaussianBlur stdDeviation="5" result="effect1_foregroundBlur_1_8"/>
</filter>
<radialGradient id="paint0_radial_1_8" cx="0" cy="0" r="1" gradientUnits="userSpaceOnUse" gradientTransform="translate(908.5 322.5) rotate(143.655) scale(1230.08 1803.95)">
<stop stop-color="#15151E"/>
<stop offset="0.861983" stop-color="#242535"/>
<stop offset="1" stop-color="#242535"/>
</radialGradient>
<linearGradient id="paint1_linear_1_8" x1="697.5" y1="550.887" x2="1047.07" y2="1288.81" gradientUnits="userSpaceOnUse">
<stop stop-color="#2C2F41"/>
<stop offset="0.283302" stop-color="#2C2F41"/>
<stop offset="0.51521" stop-color="#2C2F41"/>
<stop offset="1" stop-color="#2C2F41"/>
</linearGradient>
<radialGradient id="paint2_radial_1_8" cx="0" cy="0" r="1" gradientUnits="userSpaceOnUse" gradientTransform="translate(731.584 321.511) rotate(129.581) scale(113.176 79.9347)">
<stop stop-color="#C3C3C3"/>
<stop offset="0.52403" stop-color="white"/>
<stop offset="1" stop-color="#C8C8C8"/>
</radialGradient>
<linearGradient id="paint3_linear_1_8" x1="605.986" y1="341.237" x2="647.659" y2="413.416" gradientUnits="userSpaceOnUse">
<stop stop-color="white"/>
<stop offset="1" stop-color="#F9F9F9"/>
</linearGradient>
<radialGradient id="paint4_radial_1_8" cx="0" cy="0" r="1" gradientUnits="userSpaceOnUse" gradientTransform="translate(617.118 385.357) rotate(11.7771) scale(48.001 49.107)">
<stop stop-color="#5A5A5A"/>
<stop offset="0.596197" stop-color="#EEEEEE"/>
<stop offset="1" stop-color="white"/>
</radialGradient>
<linearGradient id="paint5_linear_1_8" x1="674.249" y1="254.038" x2="687.58" y2="284.304" gradientUnits="userSpaceOnUse">
<stop stop-color="white"/>
<stop offset="1" stop-color="#F9F9F9"/>
</linearGradient>
<linearGradient id="paint6_linear_1_8" x1="674.249" y1="254.038" x2="687.58" y2="284.304" gradientUnits="userSpaceOnUse">
<stop stop-color="white"/>
<stop offset="1" stop-color="#F9F9F9"/>
</linearGradient>
<linearGradient id="paint7_linear_1_8" x1="618.175" y1="263.3" x2="660.522" y2="336.647" gradientUnits="userSpaceOnUse">
<stop stop-color="white"/>
<stop offset="1" stop-color="#F9F9F9"/>
</linearGradient>
<linearGradient id="paint8_linear_1_8" x1="163.241" y1="8.7013" x2="607.771" y2="404.487" gradientUnits="userSpaceOnUse">
<stop stop-color="#242635"/>
<stop offset="1" stop-color="#494D69"/>
</linearGradient>
<linearGradient id="paint9_linear_1_8" x1="676.764" y1="262.5" x2="676.764" y2="286.21" gradientUnits="userSpaceOnUse">
<stop stop-color="white"/>
<stop offset="1" stop-color="#F9F9F9"/>
</linearGradient>
<linearGradient id="paint10_linear_1_8" x1="605.725" y1="306.238" x2="579.812" y2="310.453" gradientUnits="userSpaceOnUse">
<stop stop-color="#EFEFEF"/>
<stop offset="0.534453" stop-color="white" stop-opacity="0.465547"/>
<stop offset="1" stop-color="#EFEFEF" stop-opacity="0"/>
</linearGradient>
<linearGradient id="paint11_linear_1_8" x1="607.71" y1="188.617" x2="592.117" y2="275.813" gradientUnits="userSpaceOnUse">
<stop stop-color="#7177D1" stop-opacity="0.12"/>
<stop offset="1" stop-color="#242635" stop-opacity="0.22"/>
</linearGradient>
<linearGradient id="paint12_linear_1_8" x1="993.5" y1="528.888" x2="1343.07" y2="1266.81" gradientUnits="userSpaceOnUse">
<stop stop-color="#3C417C"/>
<stop offset="1" stop-color="#0C0D1C"/>
</linearGradient>
<radialGradient id="paint13_radial_1_8" cx="0" cy="0" r="1" gradientUnits="userSpaceOnUse" gradientTransform="translate(707.781 994.791) rotate(-138.513) scale(446.825 699.472)">
<stop stop-color="#303361" stop-opacity="0.83"/>
<stop offset="0.983218" stop-color="#191B34" stop-opacity="0"/>
</radialGradient>
<linearGradient id="paint14_linear_1_8" x1="149.5" y1="617.5" x2="492.5" y2="1350" gradientUnits="userSpaceOnUse">
<stop stop-color="#3C417C"/>
<stop offset="1" stop-color="#0C0D1C"/>
</linearGradient>
<radialGradient id="paint15_radial_1_8" cx="0" cy="0" r="1" gradientUnits="userSpaceOnUse" gradientTransform="translate(1.76636 899.454) rotate(-84.6361) scale(303.131 313.29)">
<stop offset="0.477659" stop-color="#292C3E"/>
<stop offset="1" stop-color="#2D3044" stop-opacity="0"/>
</radialGradient>
<radialGradient id="paint16_radial_1_8" cx="0" cy="0" r="1" gradientUnits="userSpaceOnUse" gradientTransform="translate(710.215 587.001) rotate(174.18) scale(126.371 47.9897)">
<stop stop-color="#2C2F42"/>
<stop offset="0.52458" stop-color="#2B2E40"/>
<stop offset="0.974002" stop-color="#262837"/>
</radialGradient>
<radialGradient id="paint17_radial_1_8" cx="0" cy="0" r="1" gradientUnits="userSpaceOnUse" gradientTransform="translate(710.215 587.001) rotate(173.891) scale(130.834 49.6844)">
<stop stop-color="#2C2F42"/>
<stop offset="0.791667" stop-color="#313567"/>
<stop offset="1" stop-color="#2E3263"/>
</radialGradient>
<radialGradient id="paint18_radial_1_8" cx="0" cy="0" r="1" gradientUnits="userSpaceOnUse" gradientTransform="translate(705.405 530.896) rotate(72.7185) scale(95.5486 205.205)">
<stop offset="0.140928" stop-color="#252737"/>
<stop offset="1" stop-color="#272A3B"/>
</radialGradient>
<radialGradient id="paint19_radial_1_8" cx="0" cy="0" r="1" gradientUnits="userSpaceOnUse" gradientTransform="translate(128.558 181.983) rotate(-97.2568) scale(182.491 148.312)">
<stop stop-color="#2D3041"/>
<stop offset="0.596662" stop-color="#2B2E41"/>
<stop offset="1" stop-color="#242635"/>
</radialGradient>
<radialGradient id="paint20_radial_1_8" cx="0" cy="0" r="1" gradientUnits="userSpaceOnUse" gradientTransform="translate(302.492 138.575) rotate(142.397) scale(318.966 300.84)">
<stop stop-color="#252737"/>
<stop offset="0.60513" stop-color="#2C2F42"/>
<stop offset="0.841688" stop-color="#262838"/>
<stop offset="1" stop-color="#252737"/>
</radialGradient>
<linearGradient id="paint21_linear_1_8" x1="1092.73" y1="533.482" x2="1226.4" y2="604.123" gradientUnits="userSpaceOnUse">
<stop stop-color="#383B51"/>
<stop offset="1" stop-color="#383B51"/>
</linearGradient>
<clipPath id="clip0_1_8">
<rect width="1424" height="971" fill="white"/>
</clipPath>
</defs>
</svg>
